<svg width="12" height="12" viewBox="0 0 12 12" fill="none" xmlns="http://www.w3.org/2000/svg">
<path d="M10.614 6.00005L10.925 5.04005C11.1575 4.32155 10.834 3.54005 10.1615 3.19655L9.26299 2.73755L8.80399 1.83905C8.46049 1.16655 7.67899 0.842552 6.96049 1.07555L5.99999 1.38605L5.03999 1.07505C4.32149 0.842552 3.53999 1.16605 3.19649 1.83855L2.73699 2.73705L1.83849 3.19655C1.16599 3.54005 0.842491 4.32155 1.07499 5.04005L1.38599 6.00005L1.07499 6.96005C0.842491 7.67855 1.16599 8.46005 1.83849 8.80355L2.73699 9.26255L3.19599 10.1611C3.53949 10.8336 4.32099 11.1576 5.03949 10.9246L5.99999 10.6141L6.95999 10.9251C7.67849 11.1576 8.45999 10.8341 8.80349 10.1616L9.26249 9.26305L10.161 8.80405C10.8335 8.46055 11.1575 7.67905 10.9245 6.96055L10.614 6.00005ZM5.49999 8.20705L3.64649 6.35355L4.35349 5.64655L5.49999 6.79305L8.14649 4.14655L8.85349 4.85355L5.49999 8.20705Z" fill="#00FF8C"/>
</svg>
